<?xml version="1.0" standalone="no"?>
<!DOCTYPE svg PUBLIC "-//W3C//DTD SVG 20010904//EN"
 "http://www.w3.org/TR/2001/REC-SVG-20010904/DTD/svg10.dtd">
<svg version="1.0" xmlns="http://www.w3.org/2000/svg"
 width="700.000000pt" height="700.000000pt" viewBox="0 0 700.000000 700.000000"
 preserveAspectRatio="xMidYMid meet">
<metadata>
Created by potrace 1.14, written by Peter Selinger 2001-2017
</metadata>
<g transform="translate(0.000000,700.000000) scale(0.100000,-0.100000)"
fill="#000000" stroke="none">
<path d="M2769 6986 c-2 -2 -26 -7 -54 -10 -275 -36 -516 -201 -665 -455 -74
-128 -155 -360 -175 -506 -3 -22 -7 -49 -10 -60 -12 -61 -19 -224 -19 -495 l0
-305 -918 0 -918 0 0 -265 0 -265 918 0 917 0 -2 -355 c-3 -498 -3 -3240 0
-3797 l2 -463 240 0 241 0 -1 2305 c0 1528 3 2306 10 2308 6 2 405 3 888 3
484 -1 881 3 884 8 4 6 7 391 4 501 -1 20 -7 20 -890 20 -784 0 -890 2 -893
15 -6 26 -1 581 6 656 21 238 129 455 274 552 55 37 139 74 193 86 31 7 2130
8 2238 1 161 -9 273 -25 426 -59 57 -12 148 -42 218 -72 227 -95 393 -255 498
-478 36 -79 84 -226 95 -295 3 -18 8 -43 10 -55 27 -135 27 -711 -1 -976 -53
-498 -154 -789 -342 -983 -131 -135 -318 -210 -578 -232 -27 -2 -498 -4 -1045
-4 l-995 -1 0 -240 1 -241 110 -107 c137 -132 483 -465 584 -562 41 -40 169
-163 284 -274 115 -110 235 -226 266 -256 32 -30 154 -148 271 -261 118 -113
235 -226 260 -250 48 -46 372 -357 509 -489 42 -41 174 -168 291 -281 118
-114 246 -236 284 -273 l70 -66 369 0 369 0 -40 37 c-40 37 -272 259 -441 421
-48 46 -154 148 -236 225 -81 78 -189 182 -240 230 -50 49 -163 157 -250 240
-88 84 -185 177 -216 207 -31 30 -132 127 -224 215 -93 88 -196 187 -231 220
-221 212 -444 426 -479 459 -23 21 -124 119 -226 216 -102 98 -225 216 -274
263 l-89 86 774 0 c426 0 788 3 804 6 17 3 56 10 88 16 389 68 690 343 872
794 64 160 135 432 160 615 3 25 10 77 15 115 39 277 49 1070 15 1167 -2 7 -7
31 -9 53 -5 39 -11 72 -21 125 -3 14 -8 37 -10 53 -3 15 -21 74 -40 132 -172
525 -511 849 -1050 1003 -62 18 -95 25 -210 47 -161 31 -276 33 -1461 34 -660
1 -1203 -1 -1205 -3z"/>
</g>
</svg>
