<svg width="722" height="722" viewBox="0 0 722 722" fill="none" xmlns="http://www.w3.org/2000/svg">
<path d="M190.384 244.825C189.815 311.757 189.019 500.697 190.384 721H239.863V244.825H424.128V190.323H239.863V141.558C238.156 54.501 295.313 54.501 295.313 54.501C295.313 54.501 392.564 54.5459 451.427 54.5459C536.412 54.5459 651.047 43.0214 651.047 190.323C651.047 358.559 606.687 380.602 535.028 380.602H343.085V430.323L645.076 721H721L417.303 430.323H559.768C698.991 433.383 701.379 257.209 701.379 190.323C701.379 39.2015 604.128 1 515.408 1H298.725C203.18 1 190.384 98.4851 190.384 135.776V190.323H1V244.825H190.384Z" fill="#FBB03B" stroke="#FBB03B" stroke-width="0.0697378"/>
</svg>
