<svg width="21" height="17" viewBox="0 0 21 17" fill="none" xmlns="http://www.w3.org/2000/svg">
<path d="M0.848485 3.58456e-05C0.623453 3.58456e-05 0.407637 0.0895891 0.248515 0.248995C0.0893936 0.4084 0 0.624601 0 0.850034C0 1.07547 0.0893936 1.29167 0.248515 1.45107C0.407637 1.61048 0.623453 1.70003 0.848485 1.70003H2.73212L4.95855 10.625C5.14776 11.3815 5.824 11.9 6.60206 11.9H17.1827C17.9488 11.9 18.5996 11.39 18.8007 10.6505L21 2.55003H19.2233L17.1818 10.2H6.60121L4.37564 1.27503C4.2837 0.908879 4.07177 0.584221 3.77379 0.353052C3.4758 0.121883 3.109 -0.00242499 2.73212 3.58456e-05H0.848485ZM16.1212 11.9C14.7255 11.9 13.5758 13.0518 13.5758 14.45C13.5758 15.8483 14.7255 17 16.1212 17C17.517 17 18.6667 15.8483 18.6667 14.45C18.6667 13.0518 17.517 11.9 16.1212 11.9ZM8.48485 11.9C7.08909 11.9 5.93939 13.0518 5.93939 14.45C5.93939 15.8483 7.08909 17 8.48485 17C9.88061 17 11.0303 15.8483 11.0303 14.45C11.0303 13.0518 9.88061 11.9 8.48485 11.9ZM11.0303 3.58456e-05V4.25003H8.48485L11.8788 7.65002L15.2727 4.25003H12.7273V3.58456e-05H11.0303ZM8.48485 13.6C8.96339 13.6 9.33333 13.9706 9.33333 14.45C9.33333 14.9294 8.96339 15.3 8.48485 15.3C8.0063 15.3 7.63636 14.9294 7.63636 14.45C7.63636 13.9706 8.0063 13.6 8.48485 13.6ZM16.1212 13.6C16.5998 13.6 16.9697 13.9706 16.9697 14.45C16.9697 14.9294 16.5998 15.3 16.1212 15.3C15.6427 15.3 15.2727 14.9294 15.2727 14.45C15.2727 13.9706 15.6427 13.6 16.1212 13.6Z" fill="white"/>
</svg>
