<svg width="20" height="20" viewBox="0 0 20 20" fill="none" xmlns="http://www.w3.org/2000/svg">
<g clip-path="url(#clip0_308_17)">
<path fill-rule="evenodd" clip-rule="evenodd" d="M18.896 0.140625H1.104C0.494 0.140625 0 0.609925 0 1.18942V18.0918C0 18.6713 0.494 19.1406 1.104 19.1406H10.682V11.7829H8.076V8.91578H10.682V6.80013C10.682 4.34532 12.26 3.00962 14.565 3.00962C15.669 3.00962 16.617 3.08752 16.894 3.12267V5.68767H15.296C14.042 5.68767 13.8 6.25387 13.8 7.08418V8.91482H16.789L16.399 11.7819H13.799V19.1406H18.896C19.506 19.1406 20 18.6713 20 18.0918V1.18942C20 0.609925 19.506 0.140625 18.896 0.140625Z" fill="black"/>
</g>
<defs>
<clipPath id="clip0_308_17">
<rect y="0.140625" width="20" height="19" rx="5" fill="white"/>
</clipPath>
</defs>
</svg>
