<svg width="20" height="19" viewBox="0 0 20 19" fill="none" xmlns="http://www.w3.org/2000/svg">
<path d="M10 0C12.717 0 13.056 0.00943612 14.122 0.056617C15.187 0.103798 15.912 0.261382 16.55 0.495399C17.21 0.735078 17.766 1.05968 18.322 1.58339C18.8305 2.0551 19.224 2.6257 19.475 3.25548C19.722 3.85656 19.89 4.54163 19.94 5.54658C19.987 6.55248 20 6.87236 20 9.43617C20 12 19.99 12.3199 19.94 13.3258C19.89 14.3307 19.722 15.0148 19.475 15.6169C19.2247 16.247 18.8311 16.8177 18.322 17.289C17.822 17.7686 17.2173 18.1399 16.55 18.3769C15.913 18.61 15.187 18.7685 14.122 18.8157C13.056 18.8601 12.717 18.8723 10 18.8723C7.283 18.8723 6.944 18.8629 5.878 18.8157C4.813 18.7685 4.088 18.61 3.45 18.3769C2.78233 18.1405 2.17753 17.7692 1.678 17.289C1.16941 16.8173 0.775931 16.2467 0.525 15.6169C0.277 15.0158 0.11 14.3307 0.0599999 13.3258C0.0129999 12.3199 0 12 0 9.43617C0 6.87236 0.00999994 6.55248 0.0599999 5.54658C0.11 4.54069 0.277 3.85751 0.525 3.25548C0.775236 2.62531 1.1688 2.05456 1.678 1.58339C2.17767 1.10331 2.78243 0.731991 3.45 0.495399C4.088 0.261382 4.812 0.103798 5.878 0.056617C6.944 0.012267 7.283 0 10 0ZM10 4.71809C8.67392 4.71809 7.40215 5.21517 6.46447 6.09998C5.52678 6.98479 5 8.18486 5 9.43617C5 10.6875 5.52678 11.8875 6.46447 12.7724C7.40215 13.6572 8.67392 14.1543 10 14.1543C11.3261 14.1543 12.5979 13.6572 13.5355 12.7724C14.4732 11.8875 15 10.6875 15 9.43617C15 8.18486 14.4732 6.98479 13.5355 6.09998C12.5979 5.21517 11.3261 4.71809 10 4.71809ZM16.5 4.48218C16.5 4.16935 16.3683 3.86934 16.1339 3.64813C15.8995 3.42693 15.5815 3.30266 15.25 3.30266C14.9185 3.30266 14.6005 3.42693 14.3661 3.64813C14.1317 3.86934 14 4.16935 14 4.48218C14 4.79501 14.1317 5.09503 14.3661 5.31623C14.6005 5.53743 14.9185 5.6617 15.25 5.6617C15.5815 5.6617 15.8995 5.53743 16.1339 5.31623C16.3683 5.09503 16.5 4.79501 16.5 4.48218ZM10 6.60532C10.7956 6.60532 11.5587 6.90357 12.1213 7.43446C12.6839 7.96534 13 8.68538 13 9.43617C13 10.187 12.6839 10.907 12.1213 11.4379C11.5587 11.9688 10.7956 12.267 10 12.267C9.20435 12.267 8.44129 11.9688 7.87868 11.4379C7.31607 10.907 7 10.187 7 9.43617C7 8.68538 7.31607 7.96534 7.87868 7.43446C8.44129 6.90357 9.20435 6.60532 10 6.60532Z" fill="black"/>
</svg>
