<svg width="17" height="17" viewBox="0 0 17 17" fill="none" xmlns="http://www.w3.org/2000/svg">
<path d="M11.6316 14.6389C10.5679 14.6399 9.52454 14.3321 8.61555 13.749C7.70657 13.166 6.96704 12.3303 6.47789 11.3333H11.6316L12.5263 9.44445H5.88737C5.84263 9.13278 5.81579 8.82111 5.81579 8.5C5.81579 8.17889 5.84263 7.86722 5.88737 7.55556H11.6316L12.5263 5.66667H6.47789C6.9679 4.67045 7.70763 3.83537 8.61642 3.25248C9.52521 2.66958 10.5682 2.36126 11.6316 2.36111C13.0721 2.36111 14.3963 2.91834 15.4163 3.84389L17 2.17223C15.5267 0.772055 13.614 -0.00188576 11.6316 3.45056e-06C8.12421 3.45056e-06 5.15368 2.37056 4.04421 5.66667H0.894737L0 7.55556H3.63263C3.56017 8.18286 3.56017 8.81714 3.63263 9.44445H0.894737L0 11.3333H4.04421C5.15368 14.6294 8.12421 17 11.6316 17C13.6984 17 15.5774 16.1783 17 14.8278L15.4074 13.1561C14.3963 14.0817 13.0811 14.6389 11.6316 14.6389Z" fill="#FBB03B"/>
</svg>
