<svg width="14" height="20" viewBox="0 0 14 20" fill="none" xmlns="http://www.w3.org/2000/svg">
<path d="M10.0217 8.88889H14V6.66667H12.04C12.53 5.93333 12.8333 5.2 12.8333 4.44444C12.8333 1.52222 9.91667 0 7 0C4.25833 0 1.785 2.28889 1.505 2.54444L3.16167 4.12222C3.72167 3.58889 5.495 2.22222 7 2.22222C8.21333 2.22222 10.5 2.68889 10.5 4.44444C10.5 5 9.91667 5.82222 9.05333 6.66667H0V8.88889H6.56833C6.07833 9.28889 4.375 10.7444 3.97833 11.1111H0V13.3333H1.96C1.47 14.0667 1.16667 14.8 1.16667 15.5556C1.16667 18.4778 4.08333 20 7 20C9.74167 20 12.215 17.7111 12.495 17.4556L10.8383 15.8778C10.29 16.4111 8.505 17.7778 7 17.7778C5.78667 17.7778 3.5 17.3111 3.5 15.5556C3.5 15 4.08333 14.1778 4.94667 13.3333H14V11.1111H7.44333L10.0217 8.88889Z" fill="#FBB03B"/>
</svg>
