<svg width="24" height="23" viewBox="0 0 24 23" fill="none" xmlns="http://www.w3.org/2000/svg">
<path d="M11.8729 0C15.0987 0 15.5012 0.0112034 16.7668 0.0672205C18.0313 0.123238 18.8921 0.310335 19.6496 0.58818C20.4332 0.872747 21.0933 1.25815 21.7534 1.87994C22.3572 2.43999 22.8243 3.11745 23.1224 3.86518C23.4156 4.57884 23.6151 5.39221 23.6745 6.58538C23.7303 7.77966 23.7457 8.15946 23.7457 11.2034C23.7457 14.2474 23.7338 14.6272 23.6745 15.8215C23.6151 17.0146 23.4156 17.8269 23.1224 18.5417C22.8252 19.2898 22.3579 19.9674 21.7534 20.5269C21.1598 21.0964 20.4419 21.5372 19.6496 21.8187C18.8933 22.0954 18.0313 22.2836 16.7668 22.3396C15.5012 22.3923 15.0987 22.4069 11.8729 22.4069C8.647 22.4069 8.24451 22.3957 6.97886 22.3396C5.71441 22.2836 4.85362 22.0954 4.09614 21.8187C3.30342 21.538 2.58535 21.0971 1.99227 20.5269C1.38842 19.967 0.921252 19.2895 0.623325 18.5417C0.328878 17.828 0.130601 17.0146 0.0712371 15.8215C0.0154346 14.6272 0 14.2474 0 11.2034C0 8.15946 0.0118728 7.77966 0.0712371 6.58538C0.130601 5.39109 0.328878 4.57996 0.623325 3.86518C0.920427 3.11699 1.3877 2.43935 1.99227 1.87994C2.58552 1.30994 3.30354 0.869083 4.09614 0.58818C4.85362 0.310335 5.71322 0.123238 6.97886 0.0672205C8.24451 0.0145644 8.647 0 11.8729 0ZM11.8729 5.60172C10.2984 5.60172 8.78846 6.19189 7.67517 7.24242C6.56187 8.29294 5.93643 9.71776 5.93643 11.2034C5.93643 12.6891 6.56187 14.1139 7.67517 15.1644C8.78846 16.215 10.2984 16.8051 11.8729 16.8051C13.4473 16.8051 14.9572 16.215 16.0705 15.1644C17.1838 14.1139 17.8093 12.6891 17.8093 11.2034C17.8093 9.71776 17.1838 8.29294 16.0705 7.24242C14.9572 6.19189 13.4473 5.60172 11.8729 5.60172ZM19.5902 5.32163C19.5902 4.95021 19.4339 4.59401 19.1555 4.33138C18.8772 4.06875 18.4997 3.9212 18.1061 3.9212C17.7125 3.9212 17.335 4.06875 17.0567 4.33138C16.7784 4.59401 16.622 4.95021 16.622 5.32163C16.622 5.69305 16.7784 6.04925 17.0567 6.31188C17.335 6.57451 17.7125 6.72206 18.1061 6.72206C18.4997 6.72206 18.8772 6.57451 19.1555 6.31188C19.4339 6.04925 19.5902 5.69305 19.5902 5.32163ZM11.8729 7.8424C12.8175 7.8424 13.7235 8.19651 14.3915 8.82682C15.0594 9.45714 15.4347 10.312 15.4347 11.2034C15.4347 12.0948 15.0594 12.9497 14.3915 13.58C13.7235 14.2104 12.8175 14.5645 11.8729 14.5645C10.9282 14.5645 10.0222 14.2104 9.35424 13.58C8.68626 12.9497 8.311 12.0948 8.311 11.2034C8.311 10.312 8.68626 9.45714 9.35424 8.82682C10.0222 8.19651 10.9282 7.8424 11.8729 7.8424Z" fill="white"/>
</svg>
