<svg width="28" height="29" viewBox="0 0 28 29" fill="none" xmlns="http://www.w3.org/2000/svg">
<path d="M13.9257 2.98804C7.64496 2.98804 2.54755 8.08545 2.54755 14.3662C2.54755 20.6469 7.64496 25.7443 13.9257 25.7443C20.2064 25.7443 25.3039 20.6469 25.3039 14.3662C25.3039 8.08545 20.2064 2.98804 13.9257 2.98804ZM19.2052 10.7252C19.0345 12.5229 18.2949 16.8921 17.9194 18.9061C17.7601 19.7594 17.4415 20.0439 17.1457 20.078C16.4858 20.1349 15.9851 19.6457 15.348 19.2247C14.3467 18.5647 13.7778 18.1551 12.8106 17.5179C11.6842 16.7784 12.4124 16.3687 13.061 15.7088C13.2316 15.5381 16.1444 12.887 16.2013 12.6481C16.2092 12.6119 16.2082 12.5743 16.1983 12.5386C16.1884 12.5029 16.1699 12.4702 16.1444 12.4433C16.0762 12.3864 15.9851 12.4091 15.9055 12.4205C15.8031 12.4433 14.2102 13.5014 11.1039 15.595C10.6488 15.9022 10.2392 16.0615 9.87508 16.0502C9.46546 16.0388 8.69175 15.8226 8.11146 15.6292C7.39464 15.4016 6.83711 15.2764 6.88262 14.8782C6.90538 14.6734 7.18983 14.4686 7.72461 14.2524C11.047 12.8074 13.2544 11.8516 14.3581 11.3965C17.5212 10.0766 18.1698 9.84906 18.6021 9.84906C18.6931 9.84906 18.9093 9.87182 19.0459 9.9856C19.1596 10.0766 19.1938 10.2018 19.2052 10.2928C19.1938 10.3611 19.2165 10.5659 19.2052 10.7252Z" fill="white"/>
</svg>
