<svg width="23" height="25" viewBox="0 0 23 25" fill="none" xmlns="http://www.w3.org/2000/svg">
<path fill-rule="evenodd" clip-rule="evenodd" d="M17.2972 0.713647C13.5618 -0.121346 9.68807 -0.121346 5.95266 0.713647L5.55017 0.802694C4.49944 1.03761 3.53441 1.55921 2.76227 2.30956C1.99013 3.0599 1.44111 4.00961 1.17621 5.05318C0.229349 8.78425 0.229349 12.6927 1.17621 16.4238C1.42884 17.4191 1.94012 18.3298 2.65822 19.0638C3.37632 19.7977 4.27572 20.3288 5.26522 20.6031L5.81731 23.899C5.83494 24.0036 5.88029 24.1016 5.94867 24.1828C6.01704 24.264 6.10592 24.3253 6.20606 24.3605C6.3062 24.3957 6.41393 24.4033 6.51804 24.3827C6.62215 24.3621 6.71883 24.3139 6.79801 24.2433L10.0405 21.3427C12.4745 21.4913 14.9174 21.2966 17.2972 20.7645L17.7009 20.6755C18.7516 20.4406 19.7166 19.919 20.4888 19.1686C21.2609 18.4183 21.8099 17.4686 22.0748 16.425C23.0216 12.6939 23.0216 8.78545 22.0748 5.05436C21.8098 4.01064 21.2606 3.06083 20.4883 2.31047C19.7159 1.56012 18.7506 1.0386 17.6997 0.803881L17.2972 0.713647ZM6.95473 4.95701C6.73407 4.92489 6.50906 4.9693 6.31716 5.08286H6.30054C5.8553 5.34406 5.454 5.67294 5.11206 6.05999C4.82712 6.38887 4.67277 6.72131 4.6324 7.04188C4.60865 7.23185 4.62528 7.42419 4.68108 7.60584L4.70245 7.61771C5.02302 8.55923 5.44094 9.46513 5.95147 10.3176C6.60977 11.515 7.41986 12.6224 8.36166 13.6123L8.39016 13.6527L8.43528 13.6859L8.46258 13.718L8.49583 13.7465C9.48926 14.6911 10.5992 15.5051 11.7989 16.1685C13.1702 16.9153 14.0025 17.268 14.5023 17.4152V17.4223C14.6483 17.4674 14.7813 17.4876 14.9155 17.4876C15.3412 17.4562 15.7441 17.2831 16.06 16.9961C16.4459 16.6541 16.7724 16.2517 17.0265 15.804V15.7957C17.2651 15.3446 17.1844 14.9195 16.8401 14.631C16.1485 14.0267 15.4006 13.49 14.6068 13.0282C14.0749 12.7397 13.5347 12.9142 13.3162 13.2063L12.8496 13.7952C12.6098 14.0872 12.1752 14.0469 12.1752 14.0469L12.1634 14.054C8.92088 13.2265 8.05535 9.94361 8.05535 9.94361C8.05535 9.94361 8.01498 9.49719 8.31536 9.26923L8.8995 8.79906C9.1797 8.5711 9.37442 8.03208 9.07404 7.50017C8.61528 6.7056 8.07961 5.95798 7.47476 5.26808C7.34284 5.10571 7.15783 4.99513 6.95236 4.95582L6.95473 4.95701ZM12.4329 3.52989C12.2754 3.52989 12.1244 3.59243 12.0131 3.70376C11.9018 3.81509 11.8392 3.96609 11.8392 4.12353C11.8392 4.28098 11.9018 4.43197 12.0131 4.5433C12.1244 4.65463 12.2754 4.71717 12.4329 4.71717C13.9348 4.71717 15.1814 5.20752 16.1681 6.14785C16.675 6.66195 17.0704 7.27103 17.3292 7.93828C17.5892 8.60672 17.708 9.32028 17.6771 10.035C17.6738 10.113 17.6859 10.1908 17.7128 10.2641C17.7396 10.3374 17.7805 10.4047 17.8334 10.4621C17.94 10.5781 18.0884 10.647 18.2458 10.6536C18.4033 10.6602 18.5569 10.604 18.6729 10.4974C18.7889 10.3907 18.8578 10.2423 18.8644 10.0849C18.9012 9.20569 18.7553 8.32841 18.4358 7.50848C18.1149 6.68467 17.6284 5.93547 17.0063 5.30726L16.9944 5.29538C15.7703 4.12591 14.2209 3.52989 12.4329 3.52989ZM12.3925 5.48179C12.2351 5.48179 12.0841 5.54433 11.9727 5.65566C11.8614 5.76699 11.7989 5.91799 11.7989 6.07543C11.7989 6.23287 11.8614 6.38387 11.9727 6.4952C12.0841 6.60653 12.2351 6.66907 12.3925 6.66907H12.4127C13.4955 6.74625 14.2838 7.10718 14.8359 7.69964C15.4023 8.3099 15.6955 9.06858 15.673 10.0065C15.6693 10.164 15.7284 10.3164 15.8372 10.4303C15.946 10.5442 16.0955 10.6102 16.253 10.6138C16.4104 10.6174 16.5628 10.5584 16.6767 10.4496C16.7906 10.3408 16.8566 10.1913 16.8603 10.0338C16.8888 8.80262 16.4922 7.74 15.7062 6.89228V6.88991C14.9024 6.02794 13.7994 5.57202 12.472 5.48297L12.4519 5.4806L12.3925 5.48179ZM12.3699 7.47049C12.2905 7.46348 12.2105 7.47255 12.1346 7.49716C12.0587 7.52177 11.9886 7.56141 11.9284 7.61372C11.8682 7.66603 11.8191 7.72994 11.7842 7.80162C11.7492 7.87331 11.7291 7.9513 11.7249 8.03095C11.7208 8.11059 11.7327 8.19026 11.76 8.26519C11.7874 8.34012 11.8295 8.40877 11.8839 8.46706C11.9384 8.52534 12.004 8.57206 12.0769 8.60442C12.1498 8.63678 12.2285 8.65412 12.3082 8.6554C12.8045 8.68152 13.1215 8.83112 13.321 9.03177C13.5216 9.23361 13.6712 9.55774 13.6985 10.0647C13.7 10.1444 13.7175 10.2229 13.75 10.2957C13.7825 10.3684 13.8293 10.4339 13.8876 10.4882C13.9459 10.5425 14.0146 10.5845 14.0895 10.6117C14.1644 10.6389 14.244 10.6507 14.3235 10.6465C14.4031 10.6423 14.481 10.6221 14.5526 10.5871C14.6242 10.5521 14.688 10.5031 14.7403 10.4429C14.7925 10.3828 14.8321 10.3127 14.8567 10.2369C14.8813 10.1611 14.8904 10.0812 14.8834 10.0018C14.8454 9.28941 14.6222 8.66015 14.1651 8.19711C13.7056 7.73407 13.0799 7.50848 12.3699 7.47049Z" fill="white"/>
</svg>
